<?xml version="1.0" encoding="UTF-8" standalone="no"?>
<!DOCTYPE svg PUBLIC "-//W3C//DTD SVG 1.1//EN"
 "http://www.w3.org/Graphics/SVG/1.1/DTD/svg11.dtd">
<!-- Generated by graphviz version 2.38.0 (20140413.2041)
 -->
<!-- Title: Tree Pages: 1 -->
<svg width="500pt" height="373pt"
 viewBox="0.00 0.00 500.00 373.00" xmlns="http://www.w3.org/2000/svg" xmlns:xlink="http://www.w3.org/1999/xlink">
<g id="graph0" class="graph" transform="scale(1 1) rotate(0) translate(4 369)">
<title>Tree</title>
<polygon fill="white" stroke="none" points="-4,4 -4,-369 496,-369 496,4 -4,4"/>
<!-- 0 -->
<g id="node1" class="node"><title>0</title>
<polygon fill="none" stroke="black" points="241.5,-365 116.5,-365 116.5,-297 241.5,-297 241.5,-365"/>
<text text-anchor="middle" x="179" y="-349.8" font-family="Times New Roman,serif" font-size="14.00">X[2] &lt;= 2.45</text>
<text text-anchor="middle" x="179" y="-334.8" font-family="Times New Roman,serif" font-size="14.00">gini = 0.667</text>
<text text-anchor="middle" x="179" y="-319.8" font-family="Times New Roman,serif" font-size="14.00">samples = 150</text>
<text text-anchor="middle" x="179" y="-304.8" font-family="Times New Roman,serif" font-size="14.00">value = [50, 50, 50]</text>
</g>
<!-- 1 -->
<g id="node2" class="node"><title>1</title>
<polygon fill="none" stroke="black" points="168,-253.5 56,-253.5 56,-200.5 168,-200.5 168,-253.5"/>
<text text-anchor="middle" x="112" y="-238.3" font-family="Times New Roman,serif" font-size="14.00">gini = 0.0</text>
<text text-anchor="middle" x="112" y="-223.3" font-family="Times New Roman,serif" font-size="14.00">samples = 50</text>
<text text-anchor="middle" x="112" y="-208.3" font-family="Times New Roman,serif" font-size="14.00">value = [50, 0, 0]</text>
</g>
<!-- 0&#45;&gt;1 -->
<g id="edge1" class="edge"><title>0&#45;&gt;1</title>
<path fill="none" stroke="black" d="M157.247,-296.884C149.951,-285.776 141.803,-273.372 134.454,-262.184"/>
<polygon fill="black" stroke="black" points="137.179,-259.957 128.763,-253.52 131.328,-263.8 137.179,-259.957"/>
<text text-anchor="middle" x="123.693" y="-274.3" font-family="Times New Roman,serif" font-size="14.00">True</text>
</g>
<!-- 2 -->
<g id="node3" class="node"><title>2</title>
<polygon fill="none" stroke="black" points="305.5,-261 186.5,-261 186.5,-193 305.5,-193 305.5,-261"/>
<text text-anchor="middle" x="246" y="-245.8" font-family="Times New Roman,serif" font-size="14.00">X[3] &lt;= 1.75</text>
<text text-anchor="middle" x="246" y="-230.8" font-family="Times New Roman,serif" font-size="14.00">gini = 0.5</text>
<text text-anchor="middle" x="246" y="-215.8" font-family="Times New Roman,serif" font-size="14.00">samples = 100</text>
<text text-anchor="middle" x="246" y="-200.8" font-family="Times New Roman,serif" font-size="14.00">value = [0, 50, 50]</text>
</g>
<!-- 0&#45;&gt;2 -->
<g id="edge2" class="edge"><title>0&#45;&gt;2</title>
<path fill="none" stroke="black" d="M200.753,-296.884C206.428,-288.243 212.619,-278.819 218.548,-269.793"/>
<polygon fill="black" stroke="black" points="221.562,-271.579 224.127,-261.299 215.711,-267.736 221.562,-271.579"/>
<text text-anchor="middle" x="229.197" y="-282.08" font-family="Times New Roman,serif" font-size="14.00">False</text>
</g>
<!-- 3 -->
<g id="node4" class="node"><title>3</title>
<polygon fill="none" stroke="black" points="237,-157 125,-157 125,-89 237,-89 237,-157"/>
<text text-anchor="middle" x="181" y="-141.8" font-family="Times New Roman,serif" font-size="14.00">X[2] &lt;= 4.95</text>
<text text-anchor="middle" x="181" y="-126.8" font-family="Times New Roman,serif" font-size="14.00">gini = 0.168</text>
<text text-anchor="middle" x="181" y="-111.8" font-family="Times New Roman,serif" font-size="14.00">samples = 54</text>
<text text-anchor="middle" x="181" y="-96.8" font-family="Times New Roman,serif" font-size="14.00">value = [0, 49, 5]</text>
</g>
<!-- 2&#45;&gt;3 -->
<g id="edge3" class="edge"><title>2&#45;&gt;3</title>
<path fill="none" stroke="black" d="M224.896,-192.884C219.39,-184.243 213.385,-174.819 207.633,-165.793"/>
<polygon fill="black" stroke="black" points="210.546,-163.852 202.22,-157.299 204.643,-167.614 210.546,-163.852"/>
</g>
<!-- 6 -->
<g id="node7" class="node"><title>6</title>
<polygon fill="none" stroke="black" points="367,-157 255,-157 255,-89 367,-89 367,-157"/>
<text text-anchor="middle" x="311" y="-141.8" font-family="Times New Roman,serif" font-size="14.00">X[2] &lt;= 4.85</text>
<text text-anchor="middle" x="311" y="-126.8" font-family="Times New Roman,serif" font-size="14.00">gini = 0.043</text>
<text text-anchor="middle" x="311" y="-111.8" font-family="Times New Roman,serif" font-size="14.00">samples = 46</text>
<text text-anchor="middle" x="311" y="-96.8" font-family="Times New Roman,serif" font-size="14.00">value = [0, 1, 45]</text>
</g>
<!-- 2&#45;&gt;6 -->
<g id="edge6" class="edge"><title>2&#45;&gt;6</title>
<path fill="none" stroke="black" d="M267.104,-192.884C272.61,-184.243 278.615,-174.819 284.367,-165.793"/>
<polygon fill="black" stroke="black" points="287.357,-167.614 289.78,-157.299 281.454,-163.852 287.357,-167.614"/>
</g>
<!-- 4 -->
<g id="node5" class="node"><title>4</title>
<polygon fill="none" stroke="black" points="112,-53 7.10543e-015,-53 7.10543e-015,-0 112,-0 112,-53"/>
<text text-anchor="middle" x="56" y="-37.8" font-family="Times New Roman,serif" font-size="14.00">gini = 0.041</text>
<text text-anchor="middle" x="56" y="-22.8" font-family="Times New Roman,serif" font-size="14.00">samples = 48</text>
<text text-anchor="middle" x="56" y="-7.8" font-family="Times New Roman,serif" font-size="14.00">value = [0, 47, 1]</text>
</g>
<!-- 3&#45;&gt;4 -->
<g id="edge4" class="edge"><title>3&#45;&gt;4</title>
<path fill="none" stroke="black" d="M137.281,-88.9485C124.576,-79.3431 110.728,-68.8747 98.123,-59.345"/>
<polygon fill="black" stroke="black" points="100.131,-56.4754 90.0433,-53.2367 95.9095,-62.0593 100.131,-56.4754"/>
</g>
<!-- 5 -->
<g id="node6" class="node"><title>5</title>
<polygon fill="none" stroke="black" points="235.5,-53 130.5,-53 130.5,-0 235.5,-0 235.5,-53"/>
<text text-anchor="middle" x="183" y="-37.8" font-family="Times New Roman,serif" font-size="14.00">gini = 0.444</text>
<text text-anchor="middle" x="183" y="-22.8" font-family="Times New Roman,serif" font-size="14.00">samples = 6</text>
<text text-anchor="middle" x="183" y="-7.8" font-family="Times New Roman,serif" font-size="14.00">value = [0, 2, 4]</text>
</g>
<!-- 3&#45;&gt;5 -->
<g id="edge5" class="edge"><title>3&#45;&gt;5</title>
<path fill="none" stroke="black" d="M181.7,-88.9485C181.874,-80.7153 182.061,-71.848 182.238,-63.4814"/>
<polygon fill="black" stroke="black" points="185.743,-63.3086 182.455,-53.2367 178.744,-63.1604 185.743,-63.3086"/>
</g>
<!-- 7 -->
<g id="node8" class="node"><title>7</title>
<polygon fill="none" stroke="black" points="361.5,-53 256.5,-53 256.5,-0 361.5,-0 361.5,-53"/>
<text text-anchor="middle" x="309" y="-37.8" font-family="Times New Roman,serif" font-size="14.00">gini = 0.444</text>
<text text-anchor="middle" x="309" y="-22.8" font-family="Times New Roman,serif" font-size="14.00">samples = 3</text>
<text text-anchor="middle" x="309" y="-7.8" font-family="Times New Roman,serif" font-size="14.00">value = [0, 1, 2]</text>
</g>
<!-- 6&#45;&gt;7 -->
<g id="edge7" class="edge"><title>6&#45;&gt;7</title>
<path fill="none" stroke="black" d="M310.3,-88.9485C310.126,-80.7153 309.939,-71.848 309.762,-63.4814"/>
<polygon fill="black" stroke="black" points="313.256,-63.1604 309.545,-53.2367 306.257,-63.3086 313.256,-63.1604"/>
</g>
<!-- 8 -->
<g id="node9" class="node"><title>8</title>
<polygon fill="none" stroke="black" points="492,-53 380,-53 380,-0 492,-0 492,-53"/>
<text text-anchor="middle" x="436" y="-37.8" font-family="Times New Roman,serif" font-size="14.00">gini = 0.0</text>
<text text-anchor="middle" x="436" y="-22.8" font-family="Times New Roman,serif" font-size="14.00">samples = 43</text>
<text text-anchor="middle" x="436" y="-7.8" font-family="Times New Roman,serif" font-size="14.00">value = [0, 0, 43]</text>
</g>
<!-- 6&#45;&gt;8 -->
<g id="edge8" class="edge"><title>6&#45;&gt;8</title>
<path fill="none" stroke="black" d="M354.719,-88.9485C367.424,-79.3431 381.272,-68.8747 393.877,-59.345"/>
<polygon fill="black" stroke="black" points="396.09,-62.0593 401.957,-53.2367 391.869,-56.4754 396.09,-62.0593"/>
</g>
</g>
</svg>
