<?xml version="1.0" encoding="UTF-8" standalone="no"?>
<!DOCTYPE svg PUBLIC "-//W3C//DTD SVG 1.1//EN"
 "http://www.w3.org/Graphics/SVG/1.1/DTD/svg11.dtd">
<!-- Generated by graphviz version 2.38.0 (20140413.2041)
 -->
<!-- Title: Tree Pages: 1 -->
<svg width="567pt" height="433pt"
 viewBox="0.00 0.00 567.00 433.00" xmlns="http://www.w3.org/2000/svg" xmlns:xlink="http://www.w3.org/1999/xlink">
<g id="graph0" class="graph" transform="scale(1 1) rotate(0) translate(4 429)">
<title>Tree</title>
<polygon fill="white" stroke="none" points="-4,4 -4,-429 563,-429 563,4 -4,4"/>
<!-- 0 -->
<g id="node1" class="node"><title>0</title>
<path fill="none" stroke="black" d="M273,-425C273,-425 132,-425 132,-425 126,-425 120,-419 120,-413 120,-413 120,-354 120,-354 120,-348 126,-342 132,-342 132,-342 273,-342 273,-342 279,-342 285,-348 285,-354 285,-354 285,-413 285,-413 285,-419 279,-425 273,-425"/>
<text text-anchor="start" x="128" y="-409.8" font-family="Helvetica,sans-Serif" font-size="14.00">petal length (cm) ≤ 2.45</text>
<text text-anchor="start" x="165" y="-394.8" font-family="Helvetica,sans-Serif" font-size="14.00">gini = 0.667</text>
<text text-anchor="start" x="155" y="-379.8" font-family="Helvetica,sans-Serif" font-size="14.00">samples = 150</text>
<text text-anchor="start" x="142" y="-364.8" font-family="Helvetica,sans-Serif" font-size="14.00">value = [50, 50, 50]</text>
<text text-anchor="start" x="156.5" y="-349.8" font-family="Helvetica,sans-Serif" font-size="14.00">class = setosa</text>
</g>
<!-- 1 -->
<g id="node2" class="node"><title>1</title>
<path fill="#e58139" stroke="black" d="M172,-298.5C172,-298.5 75,-298.5 75,-298.5 69,-298.5 63,-292.5 63,-286.5 63,-286.5 63,-242.5 63,-242.5 63,-236.5 69,-230.5 75,-230.5 75,-230.5 172,-230.5 172,-230.5 178,-230.5 184,-236.5 184,-242.5 184,-242.5 184,-286.5 184,-286.5 184,-292.5 178,-298.5 172,-298.5"/>
<text text-anchor="start" x="94.5" y="-283.3" font-family="Helvetica,sans-Serif" font-size="14.00">gini = 0.0</text>
<text text-anchor="start" x="80" y="-268.3" font-family="Helvetica,sans-Serif" font-size="14.00">samples = 50</text>
<text text-anchor="start" x="71" y="-253.3" font-family="Helvetica,sans-Serif" font-size="14.00">value = [50, 0, 0]</text>
<text text-anchor="start" x="77.5" y="-238.3" font-family="Helvetica,sans-Serif" font-size="14.00">class = setosa</text>
</g>
<!-- 0&#45;&gt;1 -->
<g id="edge1" class="edge"><title>0&#45;&gt;1</title>
<path fill="none" stroke="black" d="M175.091,-341.907C167.492,-330.652 159.231,-318.418 151.593,-307.106"/>
<polygon fill="black" stroke="black" points="154.391,-304.996 145.895,-298.667 148.59,-308.913 154.391,-304.996"/>
<text text-anchor="middle" x="141.136" y="-319.51" font-family="Helvetica,sans-Serif" font-size="14.00">True</text>
</g>
<!-- 2 -->
<g id="node3" class="node"><title>2</title>
<path fill="none" stroke="black" d="M349,-306C349,-306 214,-306 214,-306 208,-306 202,-300 202,-294 202,-294 202,-235 202,-235 202,-229 208,-223 214,-223 214,-223 349,-223 349,-223 355,-223 361,-229 361,-235 361,-235 361,-294 361,-294 361,-300 355,-306 349,-306"/>
<text text-anchor="start" x="210" y="-290.8" font-family="Helvetica,sans-Serif" font-size="14.00">petal width (cm) ≤ 1.75</text>
<text text-anchor="start" x="252.5" y="-275.8" font-family="Helvetica,sans-Serif" font-size="14.00">gini = 0.5</text>
<text text-anchor="start" x="234" y="-260.8" font-family="Helvetica,sans-Serif" font-size="14.00">samples = 100</text>
<text text-anchor="start" x="225" y="-245.8" font-family="Helvetica,sans-Serif" font-size="14.00">value = [0, 50, 50]</text>
<text text-anchor="start" x="226" y="-230.8" font-family="Helvetica,sans-Serif" font-size="14.00">class = versicolor</text>
</g>
<!-- 0&#45;&gt;2 -->
<g id="edge2" class="edge"><title>0&#45;&gt;2</title>
<path fill="none" stroke="black" d="M229.909,-341.907C235.914,-333.014 242.331,-323.509 248.529,-314.331"/>
<polygon fill="black" stroke="black" points="251.444,-316.267 254.14,-306.021 245.643,-312.35 251.444,-316.267"/>
<text text-anchor="middle" x="258.898" y="-326.864" font-family="Helvetica,sans-Serif" font-size="14.00">False</text>
</g>
<!-- 3 -->
<g id="node4" class="node"><title>3</title>
<path fill="#39e581" fill-opacity="0.898039" stroke="black" d="M261,-187C261,-187 120,-187 120,-187 114,-187 108,-181 108,-175 108,-175 108,-116 108,-116 108,-110 114,-104 120,-104 120,-104 261,-104 261,-104 267,-104 273,-110 273,-116 273,-116 273,-175 273,-175 273,-181 267,-187 261,-187"/>
<text text-anchor="start" x="116" y="-171.8" font-family="Helvetica,sans-Serif" font-size="14.00">petal length (cm) ≤ 4.95</text>
<text text-anchor="start" x="153" y="-156.8" font-family="Helvetica,sans-Serif" font-size="14.00">gini = 0.168</text>
<text text-anchor="start" x="147" y="-141.8" font-family="Helvetica,sans-Serif" font-size="14.00">samples = 54</text>
<text text-anchor="start" x="138" y="-126.8" font-family="Helvetica,sans-Serif" font-size="14.00">value = [0, 49, 5]</text>
<text text-anchor="start" x="135" y="-111.8" font-family="Helvetica,sans-Serif" font-size="14.00">class = versicolor</text>
</g>
<!-- 2&#45;&gt;3 -->
<g id="edge3" class="edge"><title>2&#45;&gt;3</title>
<path fill="none" stroke="black" d="M249.928,-222.907C242.94,-213.923 235.467,-204.315 228.261,-195.05"/>
<polygon fill="black" stroke="black" points="230.918,-192.766 222.016,-187.021 225.393,-197.063 230.918,-192.766"/>
</g>
<!-- 6 -->
<g id="node7" class="node"><title>6</title>
<path fill="#8139e5" fill-opacity="0.976471" stroke="black" d="M444,-187C444,-187 303,-187 303,-187 297,-187 291,-181 291,-175 291,-175 291,-116 291,-116 291,-110 297,-104 303,-104 303,-104 444,-104 444,-104 450,-104 456,-110 456,-116 456,-116 456,-175 456,-175 456,-181 450,-187 444,-187"/>
<text text-anchor="start" x="299" y="-171.8" font-family="Helvetica,sans-Serif" font-size="14.00">petal length (cm) ≤ 4.85</text>
<text text-anchor="start" x="336" y="-156.8" font-family="Helvetica,sans-Serif" font-size="14.00">gini = 0.043</text>
<text text-anchor="start" x="330" y="-141.8" font-family="Helvetica,sans-Serif" font-size="14.00">samples = 46</text>
<text text-anchor="start" x="321" y="-126.8" font-family="Helvetica,sans-Serif" font-size="14.00">value = [0, 1, 45]</text>
<text text-anchor="start" x="323.5" y="-111.8" font-family="Helvetica,sans-Serif" font-size="14.00">class = virginica</text>
</g>
<!-- 2&#45;&gt;6 -->
<g id="edge6" class="edge"><title>2&#45;&gt;6</title>
<path fill="none" stroke="black" d="M313.419,-222.907C320.484,-213.923 328.039,-204.315 335.324,-195.05"/>
<polygon fill="black" stroke="black" points="338.208,-197.045 341.637,-187.021 332.705,-192.718 338.208,-197.045"/>
</g>
<!-- 4 -->
<g id="node5" class="node"><title>4</title>
<path fill="#39e581" fill-opacity="0.980392" stroke="black" d="M115,-68C115,-68 12,-68 12,-68 6,-68 -7.10543e-015,-62 -7.10543e-015,-56 -7.10543e-015,-56 -7.10543e-015,-12 -7.10543e-015,-12 -7.10543e-015,-6 6,-0 12,-0 12,-0 115,-0 115,-0 121,-0 127,-6 127,-12 127,-12 127,-56 127,-56 127,-62 121,-68 115,-68"/>
<text text-anchor="start" x="26" y="-52.8" font-family="Helvetica,sans-Serif" font-size="14.00">gini = 0.041</text>
<text text-anchor="start" x="20" y="-37.8" font-family="Helvetica,sans-Serif" font-size="14.00">samples = 48</text>
<text text-anchor="start" x="11" y="-22.8" font-family="Helvetica,sans-Serif" font-size="14.00">value = [0, 47, 1]</text>
<text text-anchor="start" x="8" y="-7.8" font-family="Helvetica,sans-Serif" font-size="14.00">class = versicolor</text>
</g>
<!-- 3&#45;&gt;4 -->
<g id="edge4" class="edge"><title>3&#45;&gt;4</title>
<path fill="none" stroke="black" d="M143.21,-103.726C132.314,-94.3318 120.736,-84.349 109.879,-74.9883"/>
<polygon fill="black" stroke="black" points="111.981,-72.1789 102.121,-68.2996 107.41,-77.4804 111.981,-72.1789"/>
</g>
<!-- 5 -->
<g id="node6" class="node"><title>5</title>
<path fill="#8139e5" fill-opacity="0.498039" stroke="black" d="M249.5,-68C249.5,-68 157.5,-68 157.5,-68 151.5,-68 145.5,-62 145.5,-56 145.5,-56 145.5,-12 145.5,-12 145.5,-6 151.5,-0 157.5,-0 157.5,-0 249.5,-0 249.5,-0 255.5,-0 261.5,-6 261.5,-12 261.5,-12 261.5,-56 261.5,-56 261.5,-62 255.5,-68 249.5,-68"/>
<text text-anchor="start" x="166" y="-52.8" font-family="Helvetica,sans-Serif" font-size="14.00">gini = 0.444</text>
<text text-anchor="start" x="164" y="-37.8" font-family="Helvetica,sans-Serif" font-size="14.00">samples = 6</text>
<text text-anchor="start" x="155" y="-22.8" font-family="Helvetica,sans-Serif" font-size="14.00">value = [0, 2, 4]</text>
<text text-anchor="start" x="153.5" y="-7.8" font-family="Helvetica,sans-Serif" font-size="14.00">class = virginica</text>
</g>
<!-- 3&#45;&gt;5 -->
<g id="edge5" class="edge"><title>3&#45;&gt;5</title>
<path fill="none" stroke="black" d="M195.341,-103.726C196.326,-95.4263 197.366,-86.6671 198.361,-78.2834"/>
<polygon fill="black" stroke="black" points="201.843,-78.6425 199.547,-68.2996 194.892,-77.8172 201.843,-78.6425"/>
</g>
<!-- 7 -->
<g id="node8" class="node"><title>7</title>
<path fill="#8139e5" fill-opacity="0.498039" stroke="black" d="M407.5,-68C407.5,-68 315.5,-68 315.5,-68 309.5,-68 303.5,-62 303.5,-56 303.5,-56 303.5,-12 303.5,-12 303.5,-6 309.5,-0 315.5,-0 315.5,-0 407.5,-0 407.5,-0 413.5,-0 419.5,-6 419.5,-12 419.5,-12 419.5,-56 419.5,-56 419.5,-62 413.5,-68 407.5,-68"/>
<text text-anchor="start" x="324" y="-52.8" font-family="Helvetica,sans-Serif" font-size="14.00">gini = 0.444</text>
<text text-anchor="start" x="322" y="-37.8" font-family="Helvetica,sans-Serif" font-size="14.00">samples = 3</text>
<text text-anchor="start" x="313" y="-22.8" font-family="Helvetica,sans-Serif" font-size="14.00">value = [0, 1, 2]</text>
<text text-anchor="start" x="311.5" y="-7.8" font-family="Helvetica,sans-Serif" font-size="14.00">class = virginica</text>
</g>
<!-- 6&#45;&gt;7 -->
<g id="edge7" class="edge"><title>6&#45;&gt;7</title>
<path fill="none" stroke="black" d="M369.032,-103.726C368.122,-95.4263 367.162,-86.6671 366.243,-78.2834"/>
<polygon fill="black" stroke="black" points="369.718,-77.8588 365.149,-68.2996 362.76,-78.6214 369.718,-77.8588"/>
</g>
<!-- 8 -->
<g id="node9" class="node"><title>8</title>
<path fill="#8139e5" stroke="black" d="M547,-68C547,-68 450,-68 450,-68 444,-68 438,-62 438,-56 438,-56 438,-12 438,-12 438,-6 444,-0 450,-0 450,-0 547,-0 547,-0 553,-0 559,-6 559,-12 559,-12 559,-56 559,-56 559,-62 553,-68 547,-68"/>
<text text-anchor="start" x="469.5" y="-52.8" font-family="Helvetica,sans-Serif" font-size="14.00">gini = 0.0</text>
<text text-anchor="start" x="455" y="-37.8" font-family="Helvetica,sans-Serif" font-size="14.00">samples = 43</text>
<text text-anchor="start" x="446" y="-22.8" font-family="Helvetica,sans-Serif" font-size="14.00">value = [0, 0, 43]</text>
<text text-anchor="start" x="448.5" y="-7.8" font-family="Helvetica,sans-Serif" font-size="14.00">class = virginica</text>
</g>
<!-- 6&#45;&gt;8 -->
<g id="edge8" class="edge"><title>6&#45;&gt;8</title>
<path fill="none" stroke="black" d="M420.045,-103.726C430.77,-94.3318 442.166,-84.349 452.851,-74.9883"/>
<polygon fill="black" stroke="black" points="455.271,-77.5217 460.487,-68.2996 450.658,-72.2562 455.271,-77.5217"/>
</g>
</g>
</svg>
